<?xml version="1.0" standalone="no"?>
<!DOCTYPE svg PUBLIC "-//W3C//DTD SVG 20010904//EN"
 "http://www.w3.org/TR/2001/REC-SVG-20010904/DTD/svg10.dtd">
<svg version="1.0" xmlns="http://www.w3.org/2000/svg"
 width="32" height="32" viewBox="0 0 32 32"
 preserveAspectRatio="xMidYMid meet">

<g transform="translate(0.000000,32) scale(0.013333,-0.013333)"
fill="#59606a" stroke="none">
<path d="M1445 1758 c-11 -6 -27 -15 -35 -20 -8 -5 -22 -11 -30 -14 -9 -3 -21
-13 -26 -22 -10 -15 -4 -17 52 -19 68 -2 99 -16 148 -68 34 -36 78 -127 102
-210 21 -75 24 -322 4 -405 -42 -183 -100 -308 -176 -384 -78 -79 -81 -80
-154 -80 l-67 0 19 -32 c11 -18 34 -44 53 -58 53 -41 143 -32 201 19 6 6 22
19 35 30 61 53 126 158 173 282 86 229 100 544 33 755 -30 97 -100 188 -169
222 -36 18 -133 20 -163 4z"/>
<path d="M598 1743 c-10 -2 -18 -9 -18 -14 0 -5 -8 -9 -17 -9 -20 -1 -95 -59
-76 -60 6 0 15 5 18 10 3 6 26 10 51 10 24 0 44 -4 44 -10 0 -5 8 -10 19 -10
43 0 134 -141 162 -253 30 -119 73 -316 100 -457 5 -25 13 -63 18 -85 6 -22
24 -97 40 -166 36 -151 73 -253 120 -334 37 -64 105 -135 131 -135 8 0 24 -7
34 -15 11 -8 32 -15 46 -15 14 0 35 7 46 15 10 8 27 15 37 15 18 0 57 22 92
52 11 10 29 24 40 32 11 8 17 18 12 22 -4 4 -13 2 -19 -4 -18 -18 -114 -15
-146 5 -121 78 -187 246 -293 751 -5 24 -13 60 -19 80 -5 21 -17 69 -25 107
-29 125 -65 238 -100 310 -34 68 -82 135 -99 135 -4 0 -14 7 -22 15 -11 11
-36 15 -87 14 -40 -1 -80 -3 -89 -6z"/>
<path d="M1334 1595 c-10 -8 -25 -15 -33 -15 -33 0 -148 -109 -225 -214 l-29
-39 14 -71 c7 -39 18 -84 24 -100 l12 -28 33 53 c81 133 225 309 253 309 5 0
16 7 24 16 12 12 31 15 75 12 32 -2 58 0 58 3 0 9 -53 53 -87 72 -38 21 -92
22 -119 2z"/>
<path d="M432 1550 c-82 -57 -142 -132 -211 -261 -69 -130 -94 -210 -140 -437
-25 -124 -11 -348 30 -468 20 -59 94 -154 121 -154 7 0 22 -7 32 -15 25 -19
95 -19 120 0 11 8 26 15 33 15 18 0 131 82 138 100 5 12 4 13 -6 2 -7 -6 -37
-12 -66 -12 -125 0 -204 88 -247 277 -51 227 29 584 175 773 73 95 186 164
234 142 32 -15 32 -10 -6 33 -30 34 -34 35 -98 35 -57 -1 -72 -5 -109 -30z"/>
<path d="M730 821 c-91 -135 -225 -281 -259 -281 -11 0 -23 -4 -26 -10 -8 -13
-82 -13 -90 0 -8 14 -25 13 -25 -2 0 -18 49 -78 64 -78 8 0 19 -7 26 -15 20
-24 111 -19 162 7 56 29 183 156 238 237 l42 63 -10 57 c-16 84 -29 141 -33
145 -2 2 -42 -53 -89 -123z"/>
</g>
</svg>
